<svg width="720" height="805" viewBox="0 0 720 805" fill="none" xmlns="http://www.w3.org/2000/svg">
<path fill-rule="evenodd" clip-rule="evenodd" d="M-148.485 -46.2678C-305.224 105.094 -298.344 355.918 -148.729 510.849C7.86782 673.01 265.596 678.098 425.348 523.827C518.789 433.592 557.114 309.208 547.354 189.315L415.802 221.988C420.442 295.564 394.174 374.519 334.493 432.153C225.983 536.94 50.0163 533.279 -57.0963 422.361C-163.635 312.037 -161.152 136.05 -49.6295 28.3533C-36.3693 15.5481 -21.9363 3.9471 -6.94521 -5.86595L-148.485 -46.2678ZM508.882 50.5494C492.352 12.924 472.7 -15.865 448.831 -40.5818C430.786 -59.268 412.653 -73.2156 398.603 -82.9462L229.55 -40.853C264.932 -30.7501 300.691 -8.1983 331.542 23.7482C349.592 42.4394 363.482 61.6426 375.538 83.7856L508.882 50.5494Z" fill="#FAFBFD"/>
</svg>
